<svg width="208" height="84" viewBox="0 0 208 84" fill="none" xmlns="http://www.w3.org/2000/svg">
 <path fill-rule="evenodd" clip-rule="evenodd" d="M185.984 29.1503C182.439 29.1503 179.565 26.282 179.565 22.7437C179.565 19.2056 182.439 16.3371 185.984 16.3371C189.529 16.3371 192.402 19.2054 192.402 22.7437C192.402 26.2818 189.529 29.1503 185.984 29.1503H185.984ZM200 22.7437C200 14.7965 193.362 8.39711 185.318 8.76843C178.114 9.10118 172.217 15.0689 171.975 22.2629C171.743 29.1793 176.544 35.0123 183.002 36.4099L177.866 43.2334C176.906 44.5095 177.163 46.321 178.442 47.2798L180.339 48.7025C181.618 49.661 183.433 49.4037 184.393 48.1276L197.273 31.0145L197.271 31.0133C198.979 28.6951 200 25.8419 200 22.7437Z" fill="#282829"/>
 <path fill-rule="evenodd" clip-rule="evenodd" d="M140.163 25.8364V20.8077C140.163 19.2118 138.866 17.9179 137.267 17.9179H133.671C132.072 17.9179 130.775 19.2118 130.775 20.8077V34.2555C130.775 35.8514 132.072 37.1453 133.671 37.1453H166.406C168.005 37.1453 169.301 35.8514 169.301 34.2555V31.6158C169.301 30.0198 168.005 28.7259 166.406 28.7259H143.058C141.459 28.7259 140.163 27.4321 140.163 25.8361L140.163 25.8364Z" fill="#282829"/>
 <path fill-rule="evenodd" clip-rule="evenodd" d="M78.3791 22.7435C78.3791 19.2054 81.2524 16.3369 84.7975 16.3369C88.3423 16.3369 91.2159 19.2052 91.2159 22.7435C91.2159 26.2816 88.3423 29.1501 84.7975 29.1501C81.2527 29.1501 78.3791 26.2818 78.3791 22.7435ZM121.627 17.9175H118.031C116.432 17.9175 115.135 19.2114 115.135 20.8074V25.836C115.135 27.4319 113.839 28.7258 112.24 28.7258H97.4468C98.3149 26.9116 98.8139 24.889 98.8139 22.7437C98.8139 14.7965 92.1752 8.39689 84.1315 8.76845C76.9279 9.1012 71.0305 15.0689 70.7888 22.2629C70.5565 29.1795 75.358 35.0124 81.8155 36.41L76.6799 43.2334C75.7194 44.5095 75.9772 46.3211 77.2555 47.2798L79.1527 48.7023C80.4312 49.661 82.246 49.4037 83.2065 48.1276L91.4724 37.1452H121.627C123.226 37.1452 124.523 35.8513 124.523 34.2553V20.8076C124.523 19.2116 123.226 17.9178 121.627 17.9178L121.627 17.9175Z" fill="#282829"/>
 <path fill-rule="evenodd" clip-rule="evenodd" d="M36.7173 37.2469C36.7204 37.2127 36.7262 37.1796 36.729 37.1454H36.7266C36.7235 37.1794 36.7204 37.2129 36.7173 37.2469Z" fill="#282829"/>
 <path fill-rule="evenodd" clip-rule="evenodd" d="M67.6311 34.2558C67.6311 35.8518 66.3348 37.1457 64.7359 37.1457H39.8564L34.1847 44.8809H34.17C34.1703 44.8806 34.1703 44.8809 34.1703 44.8809C33.1179 46.3137 31.8115 47.5615 30.2882 48.5751C29.8999 48.8336 29.4989 49.042 29.0885 49.2255C27.5275 49.9224 25.7964 50.1442 23.7972 50.3239C16.7603 50.9576 8 43.7113 8 35.7311C8 33.4869 8.65592 30.5022 9.57057 28.6072C9.78777 28.1573 10.3187 27.3792 10.9371 26.5324C11.8777 25.2452 13.6931 24.9707 14.9809 25.9117L18.0585 28.16C19.3478 29.1019 19.6269 30.9104 18.6849 32.1985C18.4173 32.5648 18.2351 32.8151 18.2109 32.8522C17.5379 33.8769 17.2098 35.1475 17.4045 36.5032C17.7287 38.7603 19.5609 40.6011 21.821 40.9329C23.8056 41.2239 25.6157 40.4075 26.7333 39.0142L27.0158 38.6285L34.8231 27.981L35.8145 26.6287C36.7589 25.3406 38.5705 25.0608 39.861 26.0034L43.5882 28.7263H64.7359C66.3348 28.7263 67.6311 30.0202 67.6311 31.6161V34.2558V34.2558Z" fill="#282829"/>
 <path fill-rule="evenodd" clip-rule="evenodd" d="M66.7646 13.5296C66.7646 15.1255 65.4684 16.4194 63.8692 16.4194H60.4686C58.8695 16.4194 57.5735 15.1255 57.5735 13.5296V10.8898C57.5735 9.29387 58.8695 8 60.4686 8H63.8692C65.4684 8 66.7646 9.29387 66.7646 10.8901V13.5298V13.5296Z" fill="#282829"/>
 <path fill-rule="evenodd" clip-rule="evenodd" d="M43.4794 13.5296C43.4794 15.1255 42.1832 16.4194 40.5843 16.4194H37.1835C35.5846 16.4194 34.2883 15.1255 34.2883 13.5296V10.8898C34.2883 9.29387 35.5846 8 37.1835 8H40.5843C42.1832 8 43.4794 9.29387 43.4794 10.8901V13.5298V13.5296Z" fill="#282829"/>
 <path fill-rule="evenodd" clip-rule="evenodd" d="M55.122 13.5296C55.122 15.1255 53.8258 16.4194 52.2269 16.4194H48.8263C47.2274 16.4194 45.9309 15.1255 45.9309 13.5296V10.8898C45.9309 9.29387 47.2274 8 48.8263 8H52.2269C53.8258 8 55.122 9.29387 55.122 10.8901V13.5298V13.5296Z" fill="#282829"/>
 <path fill-rule="evenodd" clip-rule="evenodd" d="M124.524 46.3917C124.524 47.9879 123.227 49.2818 121.628 49.2818H118.228C116.629 49.2818 115.333 47.9879 115.333 46.3917V43.7522C115.333 42.1561 116.629 40.8622 118.228 40.8622H121.628C123.227 40.8622 124.524 42.1561 124.524 43.7522V46.3917Z" fill="#282829"/>
 <path fill-rule="evenodd" clip-rule="evenodd" d="M101.238 46.3917C101.238 47.9879 99.9425 49.2818 98.3433 49.2818H94.9427C93.3436 49.2818 92.0474 47.9879 92.0474 46.3917V43.7522C92.0474 42.1561 93.3436 40.8622 94.9427 40.8622H98.3433C99.9425 40.8622 101.238 42.1561 101.238 43.7522V46.3917Z" fill="#282829"/>
 <path fill-rule="evenodd" clip-rule="evenodd" d="M112.882 46.3917C112.882 47.9879 111.586 49.2818 109.986 49.2818H106.586C104.987 49.2818 103.69 47.9879 103.69 46.3917V43.7522C103.69 42.1561 104.987 40.8622 106.586 40.8622H109.986C111.586 40.8622 112.882 42.1561 112.882 43.7522V46.3917Z" fill="#282829"/>
 <path fill-rule="evenodd" clip-rule="evenodd" d="M149.743 46.9166C149.743 48.5123 148.447 49.8064 146.848 49.8064H143.447C141.848 49.8064 140.552 48.5123 140.552 46.9166V44.2769C140.552 42.6809 141.848 41.3871 143.447 41.3871H146.848C148.447 41.3871 149.743 42.6809 149.743 44.2769V46.9166Z" fill="#282829"/>
 <path fill-rule="evenodd" clip-rule="evenodd" d="M8.46191 65.5347H9.60696L11.4975 71.9439L13.3956 65.5347H15.0819L16.9957 71.9439L18.8938 65.5347H20.0626L17.8273 72.9836H16.1408L14.2505 66.5959L12.3209 72.9836H10.6658L8.46191 65.5347Z" fill="#282829"/>
 <path fill-rule="evenodd" clip-rule="evenodd" d="M22.8907 68.5335H27.5654V68.2437C27.5654 67.5458 27.427 67.072 27.15 66.8219C26.8726 66.5718 26.3237 66.4467 25.5029 66.4467H24.9302C24.1147 66.4467 23.5706 66.5718 23.2987 66.8219C23.0268 67.0717 22.8909 67.5456 22.8909 68.2437V68.5335H22.8907ZM24.9456 73.0823C23.7115 73.0823 22.8487 72.8653 22.3572 72.4314C21.8656 71.9976 21.6199 71.2358 21.6199 70.1465V68.3781C21.6199 67.284 21.8642 66.52 22.3533 66.0862C22.8422 65.6523 23.7012 65.4353 24.9297 65.4353H25.5024C26.7365 65.4353 27.5993 65.6523 28.0908 66.0862C28.5823 66.52 28.8281 67.284 28.8281 68.3781V69.503L22.8904 69.5102C22.8852 69.5855 22.8811 69.6691 22.8787 69.761C22.876 69.853 22.8748 69.9817 22.8748 70.1465C22.8748 70.9153 23.0107 71.4306 23.2826 71.6922C23.5545 71.954 24.1034 72.085 24.9297 72.085H25.5024C26.2397 72.085 26.7521 71.9895 27.0398 71.7985C27.3274 71.6074 27.4949 71.2739 27.5419 70.7974H28.8125C28.7498 71.604 28.4621 72.1864 27.9497 72.5448C27.437 72.9031 26.6265 73.0823 25.5182 73.0823H24.9456V73.0823Z" fill="#282829"/>
 <path fill-rule="evenodd" clip-rule="evenodd" d="M32.4251 68.6537V69.8704C32.4251 70.6439 32.6252 71.2064 33.0253 71.5576C33.4254 71.9091 34.0672 72.0847 34.9509 72.0847C35.7508 72.0847 36.2829 71.9548 36.5471 71.6954C36.8111 71.4359 36.9433 70.837 36.9433 69.8984V68.6252C36.9433 67.682 36.8111 67.081 36.5471 66.8215C36.2831 66.5621 35.751 66.4322 34.9509 66.4322C34.0674 66.4322 33.4254 66.6081 33.0253 66.9593C32.6252 67.3107 32.4251 67.8753 32.4251 68.6534V68.6537ZM31.2095 72.983V62.4495H32.4251V66.5954C32.6605 66.1848 32.9783 65.8889 33.3781 65.7073C33.7782 65.526 34.3182 65.4352 34.9976 65.4352C36.1741 65.4352 37.0043 65.6544 37.4881 66.093C37.9718 66.5316 38.2137 67.2934 38.2137 68.3779V70.1464C38.2137 71.2263 37.9718 71.9855 37.4881 72.4244C37.0043 72.8628 36.1744 73.082 34.9976 73.082C34.2868 73.082 33.7218 72.9816 33.3035 72.7811C32.8852 72.5808 32.5765 72.266 32.3778 71.8367V72.9828H31.209L31.2095 72.983Z" fill="#282829"/>
 <path fill-rule="evenodd" clip-rule="evenodd" d="M41.8089 69.8708C41.8089 70.6443 42.009 71.2068 42.4089 71.558C42.809 71.9094 43.4507 72.085 44.3344 72.085C45.1343 72.085 45.6664 71.9552 45.9307 71.6958C46.1947 71.4363 46.3269 70.8374 46.3269 69.8988V68.6255C46.3269 67.6824 46.1947 67.0813 45.9307 66.8219C45.6664 66.5624 45.1346 66.4326 44.3344 66.4326C43.4505 66.4326 42.809 66.6084 42.4089 66.9596C42.0088 67.3111 41.8089 67.8757 41.8089 68.6538V69.8705V69.8708ZM40.5933 65.5343H41.7618V66.6942C41.9603 66.2606 42.2704 65.9422 42.6914 65.7393C43.1121 65.5364 43.6756 65.4353 44.3817 65.4353C45.5584 65.4353 46.3883 65.6545 46.8722 66.0931C47.3556 66.5318 47.5977 67.2936 47.5977 68.3781V70.1465C47.5977 71.2265 47.3556 71.9856 46.8722 72.4245C46.3883 72.8629 45.5582 73.0821 44.3817 73.0821C43.7018 73.0821 43.162 72.9911 42.7619 72.8097C42.3618 72.6281 42.0443 72.3323 41.8091 71.9219V75.8339H40.5935V65.5343H40.5933Z" fill="#282829"/>
 <path fill-rule="evenodd" clip-rule="evenodd" d="M55.5708 69.8988V68.6255C55.5708 67.6872 55.4386 67.0895 55.1748 66.8324C54.9108 66.5754 54.355 66.447 53.508 66.447H52.9354C52.0934 66.447 51.5431 66.5742 51.2841 66.8291C51.0254 67.0837 50.8961 67.6826 50.8961 68.6258V69.899C50.8961 70.847 51.0266 71.4483 51.2882 71.7029C51.5498 71.9576 52.0985 72.0853 52.9354 72.0853H53.508C54.3499 72.0853 54.9041 71.9554 55.1707 71.696C55.4374 71.4365 55.5708 70.8376 55.5708 69.899V69.8988ZM52.9509 73.0823C51.7169 73.0823 50.8538 72.8653 50.3625 72.4314C49.871 71.9976 49.6252 71.2358 49.6252 70.1465V68.3781C49.6252 67.284 49.8698 66.52 50.3587 66.0862C50.8476 65.6523 51.7063 65.4353 52.9354 65.4353H53.508C54.7418 65.4353 55.6049 65.6523 56.0964 66.0862C56.5877 66.52 56.8335 67.284 56.8335 68.3781V70.1465C56.8335 71.2408 56.5889 72.0033 56.1 72.435C55.6111 72.8665 54.7522 73.0823 53.5234 73.0823H52.9507H52.9509Z" fill="#282829"/>
 <path fill-rule="evenodd" clip-rule="evenodd" d="M64.8081 69.8988V68.6255C64.8081 67.6872 64.6759 67.0895 64.4121 66.8324C64.1479 66.5754 63.5925 66.447 62.7453 66.447H62.1727C61.331 66.447 60.7807 66.5742 60.5217 66.8291C60.2627 67.0837 60.1334 67.6826 60.1334 68.6258V69.899C60.1334 70.847 60.2639 71.4483 60.5255 71.7029C60.7869 71.9576 61.336 72.0853 62.1727 72.0853H62.7453C63.587 72.0853 64.1416 71.9554 64.4083 71.696C64.6749 71.4365 64.8084 70.8376 64.8084 69.899L64.8081 69.8988ZM62.1883 73.0823C60.9542 73.0823 60.0914 72.8653 59.5998 72.4314C59.1083 71.9976 58.8628 71.2358 58.8628 70.1465V68.3781C58.8628 67.284 59.1071 66.52 59.596 66.0862C60.0849 65.6523 60.9439 65.4353 62.1724 65.4353H62.7451C63.9792 65.4353 64.842 65.6523 65.3335 66.0862C65.825 66.52 66.0708 67.284 66.0708 68.3781V70.1465C66.0708 71.2408 65.8262 72.0033 65.3373 72.435C64.8484 72.8665 63.9895 73.0823 62.7607 73.0823H62.188H62.1883Z" fill="#282829"/>
 <path fill-rule="evenodd" clip-rule="evenodd" d="M68.1292 70.7694H69.3683V70.9392C69.3683 71.3968 69.5252 71.7116 69.8389 71.8838C70.1526 72.0558 70.7828 72.142 71.7292 72.142C72.7907 72.142 73.4442 72.0546 73.69 71.8802C73.9358 71.7058 74.0586 71.3687 74.0586 70.8688C74.0586 70.383 73.9581 70.0588 73.7567 69.8959C73.5553 69.7333 73.0521 69.6329 72.2469 69.5953C71.9488 69.5809 71.5461 69.567 71.0389 69.5526C69.9304 69.5244 69.2716 69.4561 69.0625 69.3476C68.7488 69.1919 68.5252 68.9798 68.3917 68.7108C68.2585 68.442 68.1918 68.0551 68.1918 67.5506C68.1918 66.7253 68.4244 66.1664 68.89 65.8737C69.3553 65.5817 70.3801 65.4353 71.9646 65.4353C73.1934 65.4353 74.026 65.5745 74.4628 65.8526C74.8994 66.1307 75.1178 66.6192 75.1178 67.3168H73.8942V67.2464C73.8942 66.9163 73.7361 66.6884 73.4197 66.5636C73.1034 66.4386 72.4746 66.3761 71.5333 66.3761C70.6235 66.3761 70.0432 66.4515 69.7921 66.6024C69.5411 66.7534 69.4156 67.0693 69.4156 67.5504C69.4156 67.8427 69.4391 68.048 69.4859 68.1658C69.5329 68.2839 69.6164 68.3735 69.7369 68.4346C69.9827 68.5527 70.5265 68.6207 71.3685 68.6397C71.5828 68.6442 71.7477 68.649 71.8626 68.6538C72.5529 68.6773 73.0941 68.7091 73.4862 68.7492C73.8784 68.7894 74.158 68.8445 74.3255 68.9154C74.6913 69.0666 74.9517 69.2834 75.1058 69.5663C75.2601 69.8492 75.3374 70.2593 75.3374 70.7969C75.3374 71.3441 75.2615 71.759 75.1098 72.0419C74.9584 72.3248 74.6865 72.5752 74.2943 72.792C74.1165 72.8957 73.8263 72.97 73.4236 73.0148C73.0206 73.0596 72.4612 73.0818 71.745 73.0818C70.281 73.0818 69.3121 72.93 68.8391 72.6255C68.3658 72.3215 68.1292 71.7686 68.1292 70.9668V70.7684V70.7694Z" fill="#282829"/>
 <path fill-rule="evenodd" clip-rule="evenodd" d="M77.9614 72.983V62.4495H79.1302V66.5525C79.3287 66.1706 79.6479 65.8889 80.0871 65.7071C80.5263 65.5257 81.1066 65.4349 81.8283 65.4349C82.911 65.4349 83.6689 65.6319 84.1031 66.0255C84.537 66.4193 84.7542 67.1114 84.7542 68.102V72.983H83.5304V68.3353C83.5304 67.5572 83.4037 67.0455 83.1503 66.8002C82.8966 66.5549 82.4036 66.4325 81.6716 66.4325C80.8088 66.4325 80.1774 66.6093 79.7773 66.9631C79.3772 67.3167 79.1773 67.8804 79.1773 68.6537V72.983H77.9614Z" fill="#282829"/>
 <path fill-rule="evenodd" clip-rule="evenodd" d="M87.1492 72.9828V71.4477H88.5141V72.9828H87.1492Z" fill="#282829"/>
 <path fill-rule="evenodd" clip-rule="evenodd" d="M95.9534 73.0823C94.7193 73.0823 93.8565 72.8653 93.365 72.4314C92.8735 71.9976 92.6279 71.2358 92.6279 70.1465V68.3781C92.6279 67.284 92.8723 66.52 93.3611 66.0862C93.85 65.6523 94.709 65.4353 95.9378 65.4353H96.5104C97.6764 65.4353 98.5171 65.6368 99.0321 66.0402C99.5472 66.4434 99.8153 67.1048 99.8362 68.0242L98.5735 68.0314C98.5471 67.4277 98.3957 67.0128 98.1185 66.7864C97.8412 66.56 97.3053 66.4467 96.5104 66.4467H95.9378C95.0961 66.4467 94.5458 66.5739 94.2868 66.8288C94.0279 67.0835 93.8987 67.6824 93.8987 68.6255V69.8988C93.8987 70.8467 94.0293 71.448 94.2907 71.7027C94.5523 71.9573 95.1012 72.085 95.9378 72.085H96.5104C97.3159 72.085 97.8609 71.9609 98.146 71.7135C98.4309 71.4658 98.5735 71.0144 98.5735 70.3588V70.2313H99.8362V70.3727C99.8362 71.3446 99.5813 72.0388 99.0713 72.4561C98.5615 72.8737 97.7131 73.0821 96.526 73.0821H95.9534V73.0823Z" fill="#282829"/>
 <path fill-rule="evenodd" clip-rule="evenodd" d="M107.808 69.8988V68.6255C107.808 67.6872 107.676 67.0895 107.411 66.8324C107.147 66.5754 106.592 66.447 105.745 66.447H105.172C104.33 66.447 103.78 66.5742 103.521 66.8291C103.262 67.0837 103.133 67.6826 103.133 68.6258V69.899C103.133 70.847 103.263 71.4483 103.525 71.7029C103.786 71.9576 104.336 72.0853 105.172 72.0853H105.745C106.587 72.0853 107.141 71.9554 107.408 71.696C107.674 71.4365 107.808 70.8376 107.808 69.899V69.8988ZM105.188 73.0823C103.954 73.0823 103.091 72.8653 102.599 72.4314C102.108 71.9976 101.862 71.2358 101.862 70.1465V68.3781C101.862 67.284 102.106 66.52 102.596 66.0862C103.084 65.6523 103.943 65.4353 105.172 65.4353H105.745C106.979 65.4353 107.842 65.6523 108.333 66.0862C108.825 66.52 109.071 67.284 109.071 68.3781V70.1465C109.071 71.2408 108.826 72.0033 108.337 72.435C107.848 72.8665 106.989 73.0823 105.76 73.0823H105.188Z" fill="#282829"/>
 <path fill-rule="evenodd" clip-rule="evenodd" d="M111.609 72.9831V65.5342H112.801V66.5529C112.974 66.171 113.263 65.8893 113.668 65.7074C114.073 65.5261 114.608 65.4353 115.272 65.4353C115.973 65.4353 116.521 65.5321 116.915 65.7252C117.31 65.9185 117.604 66.2323 117.798 66.6659C118.038 66.2323 118.356 65.9185 118.751 65.7252C119.145 65.5318 119.662 65.4353 120.3 65.4353C121.382 65.4353 122.133 65.6286 122.551 66.0153C122.97 66.4022 123.179 67.0976 123.179 68.1023V72.9834H121.955V68.4487C121.955 67.6191 121.836 67.0756 121.598 66.8183C121.36 66.5612 120.896 66.4328 120.206 66.4328C119.442 66.4328 118.886 66.6087 118.539 66.9599C118.191 67.3113 118.017 67.8759 118.017 68.654V72.9834H116.833V67.9394C116.833 67.3501 116.714 66.9515 116.476 66.7438C116.238 66.5363 115.784 66.4326 115.115 66.4326C114.331 66.4326 113.754 66.6118 113.386 66.9702C113.017 67.3285 112.832 67.8898 112.832 68.6538V72.9831H111.609V72.9831Z" fill="#282829"/>
 <path fill-rule="evenodd" clip-rule="evenodd" d="M134.068 71.387V67.3142H134.902L136.47 70.9438L138.023 67.3142H138.863V71.387H138.358V67.6944L136.778 71.387H136.153L134.573 67.6944V71.387H134.068Z" fill="#282829"/>
 <path fill-rule="evenodd" clip-rule="evenodd" d="M140.33 69.6676H142.163V69.5552C142.163 69.2855 142.108 69.1022 141.999 69.0054C141.891 68.9089 141.675 68.8605 141.354 68.8605H141.129C140.809 68.8605 140.596 68.9089 140.49 69.0054C140.383 69.1022 140.33 69.2855 140.33 69.5552V69.6676ZM141.135 71.4264C140.651 71.4264 140.313 71.3423 140.12 71.1746C139.928 71.007 139.831 70.7123 139.831 70.2914V69.6072C139.831 69.1841 139.927 68.8887 140.119 68.7211C140.311 68.5534 140.647 68.4693 141.129 68.4693H141.353C141.837 68.4693 142.175 68.5534 142.368 68.7211C142.561 68.8887 142.657 69.1841 142.657 69.6072L142.657 70.0422L140.329 70.0449C140.327 70.0741 140.325 70.1067 140.324 70.1421C140.324 70.1778 140.323 70.2274 140.323 70.2914C140.323 70.5884 140.376 70.7877 140.483 70.8888C140.589 70.9899 140.805 71.0405 141.129 71.0405H141.353C141.642 71.0405 141.843 71.0036 141.956 70.9296C142.069 70.8558 142.134 70.7267 142.153 70.5427H142.651C142.626 70.8546 142.514 71.0798 142.313 71.2182C142.112 71.3569 141.794 71.4264 141.359 71.4264H141.135H141.135Z" fill="#282829"/>
 <path fill-rule="evenodd" clip-rule="evenodd" d="M143.572 71.3878V68.5078H144.03V68.9017C144.108 68.7539 144.233 68.6449 144.405 68.5747C144.578 68.5045 144.805 68.4693 145.088 68.4693C145.512 68.4693 145.81 68.5457 145.98 68.6978C146.15 68.8499 146.235 69.1175 146.235 69.5006V71.3878H145.756V69.5911C145.756 69.29 145.706 69.0924 145.607 68.9973C145.507 68.9024 145.314 68.855 145.027 68.855C144.689 68.855 144.441 68.9237 144.284 69.0615C144.127 69.1992 144.049 69.4165 144.049 69.7138V71.3878H143.572H143.572Z" fill="#282829"/>
 <path fill-rule="evenodd" clip-rule="evenodd" d="M147.413 67.8803V67.3142H147.917V67.9979C147.917 68.1366 147.873 68.2435 147.786 68.3182C147.699 68.3927 147.575 68.4306 147.413 68.4306V68.1898C147.487 68.1841 147.54 68.1668 147.571 68.1376C147.603 68.1083 147.619 68.0619 147.619 67.9979V67.8805H147.413L147.413 67.8803Z" fill="#282829"/>
 <path fill-rule="evenodd" clip-rule="evenodd" d="M149.115 70.5319H149.601V70.5975C149.601 70.7743 149.663 70.8958 149.786 70.9624C149.909 71.029 150.156 71.0623 150.527 71.0623C150.943 71.0623 151.199 71.0287 151.296 70.9612C151.392 70.8939 151.44 70.7633 151.44 70.57C151.44 70.3822 151.401 70.2569 151.322 70.1941C151.243 70.1311 151.045 70.0923 150.729 70.0777C150.613 70.0724 150.455 70.0669 150.256 70.0614C149.821 70.0506 149.563 70.024 149.481 69.9821C149.358 69.922 149.27 69.84 149.218 69.7361C149.166 69.6321 149.14 69.4824 149.14 69.2874C149.14 68.9683 149.231 68.7524 149.413 68.6391C149.596 68.5261 149.998 68.4693 150.619 68.4693C151.101 68.4693 151.427 68.5232 151.598 68.6307C151.769 68.7383 151.855 68.9271 151.855 69.1973H151.375V69.1695C151.375 69.0421 151.313 68.9539 151.189 68.9058C151.065 68.8574 150.819 68.8332 150.45 68.8332C150.093 68.8332 149.865 68.8624 149.767 68.9208C149.668 68.9791 149.619 69.1012 149.619 69.2874C149.619 69.4004 149.629 69.4797 149.647 69.5255C149.665 69.5708 149.698 69.6057 149.745 69.6292C149.842 69.6747 150.055 69.7013 150.385 69.7085C150.469 69.7104 150.534 69.7121 150.579 69.7138C150.849 69.7229 151.062 69.7356 151.215 69.7509C151.369 69.7665 151.479 69.7878 151.545 69.8151C151.688 69.8736 151.79 69.9574 151.851 70.0669C151.911 70.1764 151.941 70.335 151.941 70.5429C151.941 70.7545 151.911 70.915 151.852 71.0247C151.792 71.1339 151.686 71.2305 151.532 71.3143C151.462 71.3546 151.348 71.3831 151.191 71.4003C151.033 71.4176 150.813 71.4264 150.533 71.4264C149.959 71.4264 149.579 71.3675 149.393 71.2501C149.208 71.1322 149.115 70.9186 149.115 70.6086V70.5321L149.115 70.5319Z" fill="#282829"/>
 <path fill-rule="evenodd" clip-rule="evenodd" d="M155.046 68.6609C155.046 68.1394 155.158 67.7762 155.382 67.5721C155.607 67.368 156.003 67.2659 156.571 67.2659H157.106C157.67 67.2659 158.066 67.3541 158.293 67.5299C158.521 67.706 158.634 68.0045 158.634 68.4254V68.6034H158.112V68.4913C158.112 68.1834 158.041 67.9726 157.899 67.8596C157.758 67.7465 157.481 67.69 157.069 67.69H156.715C156.439 67.69 156.237 67.705 156.111 67.735C155.985 67.7652 155.88 67.8157 155.796 67.8869C155.712 67.9561 155.653 68.0469 155.619 68.1593C155.585 68.2714 155.568 68.4759 155.568 68.7732V69.933C155.568 70.2283 155.585 70.432 155.619 70.5443C155.653 70.6564 155.712 70.747 155.796 70.8165C155.88 70.8876 155.982 70.9382 156.102 70.9681C156.222 70.9983 156.426 71.0134 156.715 71.0134H157.069C157.491 71.0134 157.772 70.954 157.911 70.8354C158.051 70.717 158.121 70.4897 158.121 70.1543C158.121 70.1033 158.12 70.064 158.119 70.0367C158.118 70.0096 158.116 69.984 158.114 69.9603H158.634V70.2283C158.634 70.6804 158.524 70.9952 158.303 71.172C158.083 71.3488 157.684 71.4374 157.106 71.4374H156.57C156.002 71.4374 155.606 71.3353 155.382 71.131C155.157 70.9269 155.045 70.564 155.045 70.0424V68.6611L155.046 68.6609Z" fill="#282829"/>
 <path fill-rule="evenodd" clip-rule="evenodd" d="M159.487 71.387V67.3142H159.962V71.387H159.487Z" fill="#282829"/>
 <path fill-rule="evenodd" clip-rule="evenodd" d="M163.209 70.1956V69.703C163.209 69.3401 163.157 69.1089 163.054 69.0097C162.95 68.9103 162.732 68.8607 162.4 68.8607H162.176C161.846 68.8607 161.63 68.9101 161.528 69.0085C161.427 69.107 161.376 69.3386 161.376 69.7032V70.1958C161.376 70.5623 161.427 70.7947 161.53 70.8934C161.632 70.9919 161.847 71.041 162.175 71.041H162.4C162.73 71.041 162.947 70.9909 163.052 70.8905C163.156 70.7901 163.209 70.5587 163.209 70.1958L163.209 70.1956ZM162.182 71.4264C161.698 71.4264 161.36 71.3423 161.167 71.1746C160.974 71.0069 160.878 70.7123 160.878 70.2914V69.6072C160.878 69.1841 160.974 68.8887 161.165 68.721C161.357 68.5533 161.694 68.4693 162.176 68.4693H162.4C162.884 68.4693 163.222 68.5533 163.415 68.721C163.608 68.8887 163.704 69.1841 163.704 69.6072V70.2914C163.704 70.7142 163.608 71.0091 163.416 71.1761C163.225 71.343 162.888 71.4264 162.406 71.4264H162.182V71.4264Z" fill="#282829"/>
 <path fill-rule="evenodd" clip-rule="evenodd" d="M164.297 68.8715V68.5078H164.694V67.8596H165.173V68.5078H166.76V68.8715H165.173V70.4578C165.173 70.684 165.215 70.8375 165.298 70.9187C165.381 71 165.539 71.0404 165.773 71.0404C166.004 71.0404 166.161 71.0014 166.242 70.9228C166.323 70.8445 166.363 70.6895 166.363 70.4578V70.3728H166.849V70.3977C166.849 70.8026 166.774 71.0752 166.623 71.2156C166.472 71.356 166.159 71.4264 165.684 71.4264C165.313 71.4264 165.055 71.3519 164.91 71.2033C164.766 71.0548 164.694 70.7863 164.694 70.3979V68.8717H164.297V68.8715Z" fill="#282829"/>
 <path fill-rule="evenodd" clip-rule="evenodd" d="M167.775 71.387V67.3142H168.233V68.9006C168.311 68.7528 168.436 68.6438 168.608 68.5736C168.781 68.5034 169.008 68.4682 169.291 68.4682C169.715 68.4682 170.012 68.5446 170.183 68.6967C170.353 68.8488 170.438 69.1164 170.438 69.4995V71.3867H169.958V69.59C169.958 69.2889 169.909 69.0913 169.809 68.9962C169.709 68.9013 169.516 68.8539 169.229 68.8539C168.891 68.8539 168.643 68.9224 168.487 69.0589C168.33 69.196 168.251 69.4135 168.251 69.7127V71.3867H167.775V71.387Z" fill="#282829"/>
 <path fill-rule="evenodd" clip-rule="evenodd" d="M171.455 71.387V68.507H171.93V71.387H171.455ZM171.455 67.7957V67.3142H171.93V67.7957H171.455Z" fill="#282829"/>
 <path fill-rule="evenodd" clip-rule="evenodd" d="M172.978 71.3878V68.5078H173.436V68.9017C173.514 68.7539 173.639 68.6449 173.811 68.5747C173.983 68.5045 174.211 68.4693 174.494 68.4693C174.918 68.4693 175.216 68.5457 175.386 68.6978C175.556 68.8499 175.641 69.1175 175.641 69.5006V71.3878H175.161V69.5911C175.161 69.29 175.112 69.0924 175.012 68.9973C174.913 68.9024 174.719 68.855 174.433 68.855C174.095 68.855 173.847 68.9237 173.69 69.0615C173.533 69.1992 173.455 69.4165 173.455 69.7138V71.3878H172.978Z" fill="#282829"/>
 <path fill-rule="evenodd" clip-rule="evenodd" d="M178.888 70.1845V69.714C178.888 69.4131 178.81 69.1949 178.653 69.0591C178.496 68.9232 178.244 68.8552 177.898 68.8552C177.584 68.8552 177.375 68.9057 177.269 69.0071C177.164 69.1082 177.111 69.3403 177.111 69.7032V70.1958C177.111 70.5568 177.164 70.788 177.269 70.8891C177.375 70.9902 177.584 71.0407 177.898 71.0407C178.244 71.0407 178.496 70.9727 178.653 70.8371C178.81 70.7013 178.888 70.4837 178.888 70.1848V70.1845ZM179.365 68.5078V71.355C179.365 71.7783 179.272 72.073 179.085 72.24C178.899 72.4069 178.571 72.4903 178.101 72.4903H177.88C177.457 72.4903 177.149 72.422 176.954 72.2852C176.759 72.1484 176.649 71.9223 176.622 71.6068H177.111C177.131 71.7908 177.195 71.9189 177.303 71.9911C177.411 72.0632 177.605 72.0993 177.886 72.0993H178.101C178.384 72.0993 178.586 72.0581 178.707 71.9764C178.828 71.8943 178.889 71.7604 178.889 71.5742V70.9779C178.799 71.1368 178.675 71.2511 178.518 71.3215C178.362 71.3917 178.149 71.4266 177.88 71.4266C177.419 71.4266 177.094 71.3418 176.906 71.172C176.717 71.0026 176.623 70.7089 176.623 70.2914V69.6072C176.623 69.188 176.717 68.8933 176.906 68.7237C177.094 68.5541 177.419 68.4693 177.88 68.4693C178.157 68.4693 178.378 68.5085 178.543 68.5869C178.708 68.6655 178.83 68.7884 178.908 68.9563V68.5078H179.366H179.365Z" fill="#282829"/>
 <path fill-rule="evenodd" clip-rule="evenodd" d="M182.52 70.0615H183.03V70.1382C183.03 70.3806 183.051 70.5591 183.092 70.6741C183.133 70.7889 183.2 70.8703 183.295 70.9175C183.369 70.9539 183.482 70.98 183.637 70.9953C183.79 71.0107 184.107 71.0183 184.587 71.0183C184.847 71.0183 185.049 71.0035 185.192 70.9733C185.336 70.9434 185.443 70.8945 185.512 70.8272C185.551 70.7905 185.58 70.7287 185.598 70.641C185.617 70.5536 185.626 70.435 185.626 70.2853C185.626 69.9827 185.592 69.7928 185.523 69.7151C185.454 69.6378 185.319 69.5918 185.116 69.5772L183.704 69.4787C183.282 69.4495 182.989 69.3556 182.828 69.1972C182.666 69.0381 182.585 68.771 182.585 68.3956C182.585 68.1587 182.611 67.968 182.665 67.8238C182.718 67.6798 182.804 67.5605 182.923 67.4657C183.016 67.3926 183.145 67.3411 183.311 67.3111C183.476 67.281 183.77 67.2659 184.19 67.2659H184.353C184.823 67.2659 185.153 67.286 185.345 67.3262C185.537 67.3662 185.697 67.4355 185.826 67.5342C185.914 67.5998 185.979 67.6932 186.022 67.8145C186.064 67.9357 186.085 68.0866 186.085 68.2672C186.085 68.3202 186.084 68.3604 186.083 68.3889C186.082 68.4172 186.08 68.4421 186.079 68.4644H185.568V68.3631C185.568 68.2136 185.558 68.0991 185.539 68.0198C185.519 67.9405 185.488 67.8818 185.445 67.8434C185.381 67.7869 185.268 67.7471 185.105 67.7244C184.942 67.7014 184.633 67.6901 184.178 67.6901C183.706 67.6901 183.41 67.7376 183.289 67.8322C183.168 67.927 183.108 68.1168 183.108 68.4011C183.108 68.6345 183.147 68.7955 183.226 68.8839C183.305 68.9723 183.457 69.025 183.683 69.0413L185.122 69.1479C185.499 69.1771 185.764 69.2698 185.916 69.4255C186.067 69.5817 186.143 69.8419 186.143 70.2065C186.143 70.4726 186.124 70.6727 186.085 70.8071C186.046 70.941 185.981 71.0526 185.891 71.142C185.78 71.2534 185.631 71.331 185.444 71.3758C185.256 71.4203 184.914 71.4429 184.418 71.4429H184.19C183.768 71.4429 183.469 71.4234 183.294 71.3854C183.119 71.3468 182.972 71.2807 182.856 71.1856C182.741 71.0981 182.656 70.9795 182.602 70.8301C182.548 70.6803 182.521 70.4908 182.521 70.2609V70.0613L182.52 70.0615Z" fill="#282829"/>
 <path fill-rule="evenodd" clip-rule="evenodd" d="M186.806 68.8715V68.5078H187.203V67.8596H187.683V68.5078H189.27V68.8715H187.683V70.4578C187.683 70.684 187.724 70.8375 187.807 70.9187C187.89 71 188.048 71.0404 188.282 71.0404C188.514 71.0404 188.67 71.0014 188.751 70.9228C188.832 70.8445 188.873 70.6895 188.873 70.4578V70.3728H189.359V70.3977C189.359 70.8026 189.283 71.0752 189.133 71.2156C188.982 71.356 188.669 71.4264 188.193 71.4264C187.822 71.4264 187.564 71.3519 187.42 71.2033C187.275 71.0548 187.203 70.7863 187.203 70.3979V68.8717H186.806L186.806 68.8715Z" fill="#282829"/>
 <path fill-rule="evenodd" clip-rule="evenodd" d="M192.486 70.1956V69.703C192.486 69.3401 192.434 69.1089 192.33 69.0097C192.227 68.9103 192.009 68.8607 191.677 68.8607H191.452C191.122 68.8607 190.907 68.9101 190.805 69.0085C190.704 69.107 190.653 69.3386 190.653 69.7032V70.1958C190.653 70.5623 190.704 70.7947 190.807 70.8934C190.909 70.9919 191.124 71.041 191.452 71.041H191.677C192.007 71.041 192.225 70.9909 192.329 70.8905C192.434 70.7901 192.486 70.5587 192.486 70.1958L192.486 70.1956ZM191.459 71.4264C190.975 71.4264 190.636 71.3423 190.444 71.1746C190.251 71.0069 190.155 70.7123 190.155 70.2914V69.6072C190.155 69.1841 190.251 68.8887 190.443 68.721C190.634 68.5533 190.971 68.4693 191.452 68.4693H191.677C192.161 68.4693 192.499 68.5533 192.692 68.721C192.885 68.8887 192.981 69.1841 192.981 69.6072L192.981 70.2914C192.981 70.7142 192.885 71.0091 192.693 71.1761C192.502 71.343 192.165 71.4264 191.683 71.4264H191.459V71.4264Z" fill="#282829"/>
 <path fill-rule="evenodd" clip-rule="evenodd" d="M193.887 71.3878V68.5078H194.351V68.9017C194.419 68.7522 194.524 68.6427 194.668 68.5735C194.811 68.5042 195.002 68.4693 195.24 68.4693C195.592 68.4693 195.84 68.5452 195.983 68.6964C196.125 68.8475 196.197 69.1156 196.197 69.5006V69.5224H195.713V69.4376C195.713 69.2078 195.673 69.0531 195.59 68.9738C195.509 68.8945 195.354 68.8547 195.126 68.8547C194.86 68.8547 194.667 68.9218 194.548 69.0557C194.429 69.1896 194.37 69.4091 194.37 69.7135V71.3876H193.887V71.3878Z" fill="#282829"/>
 <path fill-rule="evenodd" clip-rule="evenodd" d="M197.256 69.6676H199.089V69.5552C199.089 69.2855 199.035 69.1022 198.926 69.0054C198.818 68.9089 198.602 68.8605 198.28 68.8605H198.056C197.736 68.8605 197.523 68.9089 197.416 69.0054C197.31 69.1022 197.256 69.2855 197.256 69.5552V69.6676ZM198.062 71.4264C197.578 71.4264 197.24 71.3423 197.047 71.1746C196.855 71.007 196.758 70.7123 196.758 70.2914V69.6072C196.758 69.1841 196.854 68.8887 197.046 68.7211C197.237 68.5534 197.574 68.4693 198.056 68.4693H198.28C198.764 68.4693 199.102 68.5534 199.295 68.7211C199.488 68.8887 199.585 69.1841 199.585 69.6072V70.0422L197.256 70.0449C197.255 70.0741 197.253 70.1067 197.252 70.1421C197.251 70.1778 197.25 70.2274 197.25 70.2914C197.25 70.5884 197.303 70.7877 197.41 70.8888C197.517 70.9899 197.732 71.0405 198.056 71.0405H198.28C198.57 71.0405 198.77 71.0036 198.883 70.9296C198.996 70.8558 199.061 70.7267 199.08 70.5427H199.578C199.553 70.8546 199.441 71.0798 199.24 71.2182C199.039 71.3569 198.721 71.4264 198.286 71.4264H198.062V71.4264Z" fill="#282829"/>
 <path fill-rule="evenodd" clip-rule="evenodd" d="M10.7824 11.1521H11.3591C11.7328 11.1521 11.9654 11.136 12.059 11.1046C12.1514 11.0733 12.2253 11.0186 12.2772 10.9415C12.3302 10.8644 12.3561 10.7676 12.3561 10.6519C12.3561 10.5218 12.3211 10.4178 12.252 10.3371C12.1828 10.2573 12.0849 10.207 11.9591 10.1864C11.8953 10.1773 11.7057 10.173 11.3906 10.173H10.7824V11.1521ZM10.001 13.374V9.52209H11.6419C12.0544 9.52209 12.3542 9.55707 12.5412 9.62607C12.7288 9.69506 12.8779 9.81795 12.9902 9.99451C13.1025 10.172 13.1592 10.3737 13.1592 10.6016C13.1592 10.8912 13.0747 11.1298 12.905 11.3181C12.7353 11.5064 12.4819 11.6247 12.1442 11.6741C12.3122 11.7718 12.4504 11.8794 12.5592 11.9968C12.6688 12.1144 12.816 12.3233 13.001 12.6227L13.4716 13.3742H12.5402L11.9815 12.5331C11.7813 12.2346 11.6438 12.0463 11.5691 11.9683C11.4955 11.8911 11.4172 11.8375 11.3347 11.8087C11.2511 11.78 11.1201 11.7656 10.9403 11.7656H10.7822V13.3742H10.0007L10.001 13.374Z" fill="#282829"/>
 <path fill-rule="evenodd" clip-rule="evenodd" d="M11.5475 14.5625C9.87562 14.5625 8.52033 13.2097 8.52033 11.541C8.52033 9.87217 9.87562 8.51937 11.5475 8.51937C13.2193 8.51937 14.5746 9.87217 14.5746 11.541C14.5746 13.2097 13.2193 14.5625 11.5475 14.5625ZM11.5475 8C9.58809 8 8 9.58566 8 11.5412C8 13.4967 9.58833 15.0821 11.5475 15.0821C13.5066 15.0821 15.0949 13.4967 15.0949 11.5412C15.0949 9.58542 13.5066 8 11.5475 8Z" fill="#282829"/>
 <path fill-rule="evenodd" clip-rule="evenodd" d="M128.567 76C128.299 76 128.083 75.7839 128.083 75.5171V63.7338C128.083 63.4672 128.299 63.2508 128.567 63.2508C128.834 63.2508 129.05 63.4669 129.05 63.7338V75.5171C129.05 75.7837 128.834 76 128.567 76Z" fill="#282829"/>
</svg>
